<?xml version="1.0" encoding="utf-8"?>
<!-- Generator: Adobe Illustrator 22.1.0, SVG Export Plug-In . SVG Version: 6.00 Build 0)  -->
<svg version="1.1" id="Layer_1" xmlns="http://www.w3.org/2000/svg" xmlns:xlink="http://www.w3.org/1999/xlink" x="0px" y="0px"
	 viewBox="0 0 79.4 90" style="enable-background:new 0 0 79.4 90;" xml:space="preserve">
<style type="text/css">
	.st0{fill:#09A6AA;}
</style>
<g>
	<path class="st0" d="M46.2,85.1c2.9-0.2,5.2-2.6,5.2-5.5v-8V70c0-4.2,1.8-8.2,4.9-11.1c5.5-5.1,8.3-12.3,7.6-19.8
		c-1-11.6-10.6-21-22.2-21.8c-1.1-0.1-2.3-0.1-3.4,0C26.6,18.1,17,27.5,16,39.1c-0.7,7.5,2.1,14.7,7.6,19.8c3.1,2.9,4.9,7,4.9,11.1
		v1.5v8c0,2.9,2.3,5.3,5.2,5.5c0.7,2.5,3.2,4.9,6.3,4.9S45.5,87.6,46.2,85.1z M31.5,76.1h16.9v1.5H31.5V76.1z M25.6,56.7
		c-4.8-4.5-7.2-10.8-6.6-17.4c0.9-10.2,9.3-18.4,19.5-19.1c1-0.1,2-0.1,3,0C51.6,21,60,29.2,60.9,39.3c0.6,6.6-1.8,12.9-6.6,17.4
		c-3.4,3.1-5.4,7.4-5.8,11.8h-3.9V49.4h2c2.7,0,5-2.2,5-5s-2.2-5-5-5s-5,2.2-5,5v2h-3.3v-2c0-2.7-2.2-5-5-5s-5,2.2-5,5s2.2,5,5,5h2
		v19.1h-3.9C31,64.1,29,59.8,25.6,56.7z M35.3,46.4h-2c-1.1,0-2-0.9-2-2s0.9-2,2-2s2,0.9,2,2V46.4z M38.3,49.4h3.3v19.1h-3.3V49.4z
		 M44.5,46.4v-2c0-1.1,0.9-2,2-2s2,0.9,2,2s-0.9,2-2,2C46.5,46.4,44.5,46.4,44.5,46.4z M48.4,71.5v1.5H31.5v-1.5H48.4z M31.7,80.6
		h16.5c-0.4,0.9-1.3,1.5-2.3,1.5H34C33,82.1,32.1,81.5,31.7,80.6z M39.9,87c-1.3,0-2.4-0.9-3-1.9h6.1C42.3,86.1,41.2,87,39.9,87z"/>
	<path class="st0" d="M38.3,1.6v7c0,0.9,0.7,1.6,1.6,1.6c0.9,0,1.6-0.7,1.6-1.6v-7c0-0.9-0.7-1.6-1.6-1.6S38.3,0.7,38.3,1.6z"/>
	<path class="st0" d="M64.3,8.1c-0.7-0.5-1.7-0.4-2.2,0.4L58,14.1c-0.5,0.7-0.4,1.7,0.4,2.2s1.7,0.4,2.2-0.4l4.1-5.6
		C65.2,9.6,65,8.6,64.3,8.1z"/>
	<path class="st0" d="M79.3,28.9c-0.3-0.8-1.2-1.3-2-1l-6.6,2.2c-0.8,0.3-1.3,1.2-1,2s1.2,1.3,2,1l6.6-2.2
		C79.1,30.7,79.6,29.8,79.3,28.9z"/>
	<path class="st0" d="M77.1,55.7c0.8,0.3,1.7-0.2,2-1c0.3-0.8-0.2-1.7-1-2l-6.6-2.2c-0.8-0.3-1.7,0.2-2,1c-0.3,0.8,0.2,1.7,1,2
		L77.1,55.7z"/>
	<path class="st0" d="M61.7,75c0.5,0.7,1.5,0.9,2.2,0.4c0.7-0.5,0.9-1.5,0.4-2.2l-4.1-5.6c-0.5-0.7-1.5-0.9-2.2-0.4
		s-0.9,1.5-0.4,2.2L61.7,75z"/>
	<path class="st0" d="M15.1,75.1c0.7,0.5,1.7,0.4,2.2-0.4l4.1-5.6c0.5-0.7,0.4-1.7-0.4-2.2s-1.7-0.4-2.2,0.4l-4.1,5.6
		C14.2,73.6,14.4,74.6,15.1,75.1z"/>
	<path class="st0" d="M2.1,55.2l6.6-2.2c0.8-0.3,1.3-1.2,1-2l0,0c-0.3-0.8-1.2-1.3-2-1l-6.6,2.2c-0.8,0.3-1.3,1.2-1,2
		C0.3,55,1.2,55.5,2.1,55.2z"/>
	<path class="st0" d="M1.2,30.5l6.6,2.2c0.8,0.3,1.7-0.2,2-1c0.3-0.8-0.2-1.7-1-2l-6.6-2.2c-0.8-0.3-1.7,0.2-2,1
		C0,29.3,0.4,30.2,1.2,30.5z"/>
	<path class="st0" d="M19.2,15.7c0.5,0.7,1.5,0.9,2.2,0.4c0.7-0.5,0.9-1.5,0.4-2.2l-4.1-5.6c-0.5-0.7-1.5-0.9-2.2-0.4
		c-0.7,0.5-0.9,1.5-0.4,2.2L19.2,15.7z"/>
</g>
</svg>
